<svg width="23" height="16" viewBox="0 0 23 16" fill="none" xmlns="http://www.w3.org/2000/svg">
<path d="M7 16C6.16667 16 5.45833 15.7083 4.875 15.125C4.29167 14.5417 4 13.8333 4 13H1.5L1.95 11H4.775C5.05833 10.6833 5.39167 10.4375 5.775 10.2625C6.15833 10.0875 6.56667 10 7 10C7.43333 10 7.84167 10.0875 8.225 10.2625C8.60833 10.4375 8.94167 10.6833 9.225 11H13.4L15.5 2H4.55L4.65 1.575C4.75 1.10833 4.97917 0.729167 5.3375 0.4375C5.69583 0.145833 6.11667 0 6.6 0H18L17.075 4H20L23 8L22 13H20C20 13.8333 19.7083 14.5417 19.125 15.125C18.5417 15.7083 17.8333 16 17 16C16.1667 16 15.4583 15.7083 14.875 15.125C14.2917 14.5417 14 13.8333 14 13H10C10 13.8333 9.70833 14.5417 9.125 15.125C8.54167 15.7083 7.83333 16 7 16ZM15.925 9H20.75L20.85 8.475L19 6H16.625L15.925 9ZM15.45 2.175L15.5 2L13.4 11L13.45 10.825L14.3 7.175L15.45 2.175ZM0.5 9.325L1 7.325H6.5L6 9.325H0.5ZM2.5 5.675L3 3.675H9.5L9 5.675H2.5ZM7 14C7.28333 14 7.52083 13.9042 7.7125 13.7125C7.90417 13.5208 8 13.2833 8 13C8 12.7167 7.90417 12.4792 7.7125 12.2875C7.52083 12.0958 7.28333 12 7 12C6.71667 12 6.47917 12.0958 6.2875 12.2875C6.09583 12.4792 6 12.7167 6 13C6 13.2833 6.09583 13.5208 6.2875 13.7125C6.47917 13.9042 6.71667 14 7 14ZM17 14C17.2833 14 17.5208 13.9042 17.7125 13.7125C17.9042 13.5208 18 13.2833 18 13C18 12.7167 17.9042 12.4792 17.7125 12.2875C17.5208 12.0958 17.2833 12 17 12C16.7167 12 16.4792 12.0958 16.2875 12.2875C16.0958 12.4792 16 12.7167 16 13C16 13.2833 16.0958 13.5208 16.2875 13.7125C16.4792 13.9042 16.7167 14 17 14Z" fill="#E44848"/>
</svg>
